# xmcd CD database file
#
# Track frame offsets:
#	180
#	29288
#	47415
#	63306
#	84107
#	103149
#	133690
#	151732
#	175313
#	191700
#	211432
#
# Disc length: 3175 seconds
#
# Revision: 1
# Processed by: cddbd v1.4PL0 Copyright (c) Steve Scherf et al.
# Submitted via: CDex 1.40Release
#
DISCID=8c0c650b
DTITLE=Lonnie Ray - Live at BB's
DYEAR=1998
DGENRE=Blues
TTITLE0=Caladonia
TTITLE1=Goin' Back Home
TTITLE2=Undivided Love
TTITLE3=Cold Shot
TTITLE4=Why Don't You Do Right?
TTITLE5=I'll Take You Back
TTITLE6=Killing Floor
TTITLE7=Hoo Doo Ball
TTITLE8=If I Hadn't Been High
TTITLE9=Members Only
TTITLE10=The Blues Had a Baby
EXTD=YEAR: 1998 ID3G: 0
EXTT0=
EXTT1=
EXTT2=
EXTT3=
EXTT4=
EXTT5=
EXTT6=
EXTT7=
EXTT8=
EXTT9=
EXTT10=
PLAYORDER=
